<?xml version="1.0" encoding="utf-8"?>
<!-- Generator: Adobe Illustrator 21.0.2, SVG Export Plug-In . SVG Version: 6.00 Build 0)  -->
<svg version="1.1" id="Layer_1" xmlns="http://www.w3.org/2000/svg" xmlns:xlink="http://www.w3.org/1999/xlink" x="0px" y="0px"
	 viewBox="0 0 20 20" style="enable-background:new 0 0 20 20;" xml:space="preserve">
<style type="text/css">
	.st0{fill:#FFFFFF;}
</style>
<path class="st0" d="M17.9,5.6l-4.5-4.5C13.3,1.1,13.1,1,13,1H3.5C2.7,1,2,1.7,2,2.5v16C2,19.3,2.7,20,3.5,20h13
	c0.8,0,1.5-0.7,1.5-1.5V6C18,5.9,17.9,5.7,17.9,5.6z M16.8,6h-3.3C13.2,6,13,5.8,13,5.5V2.2L16.8,6z M16.5,19h-13
	C3.2,19,3,18.8,3,18.5v-16C3,2.2,3.2,2,3.5,2H12v3.5C12,6.3,12.7,7,13.5,7H17v11.5C17,18.8,16.8,19,16.5,19z"/>
<path class="st0" d="M14.9,17.2l-2.9-3.5C12.6,13,13,12,13,11c0-2.2-1.8-4-4-4s-4,1.8-4,4s1.8,4,4,4c0.8,0,1.6-0.2,2.2-0.6l2.9,3.5
	c0.1,0.1,0.2,0.2,0.4,0.2c0.1,0,0.2,0,0.3-0.1C15,17.7,15.1,17.4,14.9,17.2z M6,11c0-1.7,1.3-3,3-3s3,1.3,3,3s-1.3,3-3,3
	S6,12.7,6,11z"/>
</svg>
