<?xml version="1.0" encoding="utf-8"?>
<!-- Generator: Adobe Illustrator 21.0.2, SVG Export Plug-In . SVG Version: 6.00 Build 0)  -->
<svg version="1.1" id="Layer_1" xmlns="http://www.w3.org/2000/svg" xmlns:xlink="http://www.w3.org/1999/xlink" x="0px" y="0px"
	 viewBox="0 0 25 20.5" style="enable-background:new 0 0 25 20.5;" xml:space="preserve">
<style type="text/css">
	.st0{fill:#7F7F7F;}
	.st1{fill:#FFFFFF;}
	.st2{fill:#BFBFBF;}
</style>
<g>
	<path class="st0" d="M5.5,0h3C8.8,0,9,0.2,9,0.5v3C9,3.8,8.8,4,8.5,4h-3C5.2,4,5,3.8,5,3.5v-3C5,0.2,5.2,0,5.5,0z"/>
	<path class="st0" d="M6.5,5h3C9.8,5,10,5.2,10,5.5v3C10,8.8,9.8,9,9.5,9h-3C6.2,9,6,8.8,6,8.5v-3C6,5.2,6.2,5,6.5,5z"/>
	<path class="st0" d="M0.5,7h3C3.8,7,4,7.2,4,7.5v3C4,10.8,3.8,11,3.5,11h-3C0.2,11,0,10.8,0,10.5v-3C0,7.2,0.2,7,0.5,7z"/>
</g>
<path class="st1" d="M16.5,13.5h3c0.3,0,0.5,0.2,0.5,0.5v3c0,0.3-0.2,0.5-0.5,0.5h-3c-0.3,0-0.5-0.2-0.5-0.5v-3
	C16,13.7,16.2,13.5,16.5,13.5z"/>
<path class="st1" d="M9,16.5h3c0.3,0,0.5,0.2,0.5,0.5v3c0,0.3-0.2,0.5-0.5,0.5H9c-0.3,0-0.5-0.2-0.5-0.5v-3
	C8.5,16.7,8.7,16.5,9,16.5z"/>
<path class="st1" d="M11.5,10.5h3c0.3,0,0.5,0.2,0.5,0.5v3c0,0.3-0.2,0.5-0.5,0.5h-3c-0.3,0-0.5-0.2-0.5-0.5v-3
	C11,10.7,11.2,10.5,11.5,10.5z"/>
<path class="st2" d="M21.5,1h3C24.8,1,25,1.2,25,1.5v3C25,4.8,24.8,5,24.5,5h-3C21.2,5,21,4.8,21,4.5v-3C21,1.2,21.2,1,21.5,1z"/>
<path class="st2" d="M18.5,6h3C21.8,6,22,6.2,22,6.5v3c0,0.3-0.2,0.5-0.5,0.5h-3C18.2,10,18,9.8,18,9.5v-3C18,6.2,18.2,6,18.5,6z"/>
<path class="st2" d="M13.5,4h3C16.8,4,17,4.2,17,4.5v3C17,7.8,16.8,8,16.5,8h-3C13.2,8,13,7.8,13,7.5v-3C13,4.2,13.2,4,13.5,4z"/>
</svg>
