<?xml version="1.0" encoding="utf-8"?>
<!-- Generated by IcoMoon.io -->
<!DOCTYPE svg PUBLIC "-//W3C//DTD SVG 1.1//EN" "http://www.w3.org/Graphics/SVG/1.1/DTD/svg11.dtd">
<svg version="1.1" xmlns="http://www.w3.org/2000/svg" xmlns:xlink="http://www.w3.org/1999/xlink" width="20" height="20" viewBox="0 0 20 20">
<path d="M18.5 7c-0.276 0-0.5-0.224-0.5-0.5v-2c0-0.276-0.224-0.5-0.5-0.5h-2c-0.276 0-0.5-0.224-0.5-0.5s0.224-0.5 0.5-0.5h2c0.827 0 1.5 0.673 1.5 1.5v2c0 0.276-0.224 0.5-0.5 0.5z" fill="#000000"></path>
<path d="M0.5 7c-0.276 0-0.5-0.224-0.5-0.5v-2c0-0.827 0.673-1.5 1.5-1.5h2c0.276 0 0.5 0.224 0.5 0.5s-0.224 0.5-0.5 0.5h-2c-0.276 0-0.5 0.224-0.5 0.5v2c0 0.276-0.224 0.5-0.5 0.5z" fill="#000000"></path>
<path d="M3.5 18h-2c-0.827 0-1.5-0.673-1.5-1.5v-2c0-0.276 0.224-0.5 0.5-0.5s0.5 0.224 0.5 0.5v2c0 0.276 0.224 0.5 0.5 0.5h2c0.276 0 0.5 0.224 0.5 0.5s-0.224 0.5-0.5 0.5z" fill="#000000"></path>
<path d="M17.5 18h-2c-0.276 0-0.5-0.224-0.5-0.5s0.224-0.5 0.5-0.5h2c0.276 0 0.5-0.224 0.5-0.5v-2c0-0.276 0.224-0.5 0.5-0.5s0.5 0.224 0.5 0.5v2c0 0.827-0.673 1.5-1.5 1.5z" fill="#000000"></path>
<path d="M11.5 10h-1.5v-1.5c0-0.276-0.224-0.5-0.5-0.5s-0.5 0.224-0.5 0.5v1.5h-1.5c-0.276 0-0.5 0.224-0.5 0.5s0.224 0.5 0.5 0.5h1.5v1.5c0 0.276 0.224 0.5 0.5 0.5s0.5-0.224 0.5-0.5v-1.5h1.5c0.276 0 0.5-0.224 0.5-0.5s-0.224-0.5-0.5-0.5z" fill="#000000"></path>
</svg>
